<?xml version="1.0" encoding="utf-8"?>
<!-- Generator: Adobe Illustrator 24.0.2, SVG Export Plug-In . SVG Version: 6.00 Build 0)  -->
<svg version="1.1" id="Layer_1" xmlns="http://www.w3.org/2000/svg" xmlns:xlink="http://www.w3.org/1999/xlink" x="0px" y="0px"
	 viewBox="0 0 1290.32 479.32" style="enable-background:new 0 0 1290.32 479.32;" xml:space="preserve">
<style type="text/css">
	.st0{fill:#4D4D4D;}
	.st1{fill-rule:evenodd;clip-rule:evenodd;fill:#ED1C24;}
	.st2{fill:#ED1C24;}
	.st3{fill:#00732F;}
</style>
<g>
	<path class="st0" d="M462.04,74.43l-11.9,17.9l-26.19-10.64l12.38-18.03L462.04,74.43z M512.51,142.9c0,11.77-2.44,20.61-7.3,26.54
		c-7.51,9.18-21.27,13.77-41.26,13.77c-7.72,0-14.12-1.21-19.2-3.63c-5.82-2.75-8.73-6.68-8.73-11.77c0-5.84,1.85-12.6,5.55-20.28
		c3.38-6.51,6.82-13.06,10.32-19.65l-2.38-0.5l9.68-21.16c19.15,7.93,30.58,12.94,34.28,15.02
		C506.16,128.26,512.51,135.48,512.51,142.9z M498.7,152.67c0-3.17-5.82-7.39-17.46-12.64c-4.97-2.25-10.32-4.46-16.03-6.64
		c-4.76,4.09-7.62,6.64-8.57,7.64c-2.96,3.25-4.44,6.34-4.44,9.26c0,4.26,1.51,7.57,4.52,9.95c3.02,2.38,7.06,3.57,12.14,3.57
		c5.92,0,12.38-1.31,19.36-3.94S498.7,154.84,498.7,152.67z M498.22,62.78l-11.74,18.15l-26.03-10.52l12.06-18.15L498.22,62.78z"/>
	<path class="st0" d="M625.66,179.83h-71.1c-6.03,0-11.45-1.38-16.27-4.13c-4.82-2.75-7.22-6.01-7.22-9.76
		c0-3.17,0.21-6.05,0.63-8.64c0.42-2.59,1.22-5.42,2.38-8.51h3.65c1.16,3.42,3.28,5.88,6.35,7.39c2.54,1.25,6.03,1.88,10.47,1.88
		h61.42c0-14.94-2.65-26.96-7.94-36.05c-6.56-11.35-17.51-18.9-32.85-22.66l2.38-24.29c18.3,7.09,31.26,18.4,38.88,33.93
		c6.13,12.52,9.2,28.88,9.2,49.07V179.83z"/>
	<path class="st0" d="M700.25,179.83h-22.22c-7.2,0-12.96-2.29-17.3-6.89c-3.81-4.01-6.69-9.97-8.65-17.9
		c-1.96-7.93-3.47-17.69-4.52-29.29c-0.63-9.43-1.3-19.11-1.98-29.04c-0.69-9.93-1.59-17.46-2.7-22.6s-2.62-9.33-4.52-12.58
		c-2.33-4.01-5.55-7.51-9.68-10.52l19.52-24.29c4.13,10.02,7.04,21.99,8.73,35.93c1.06,8.68,2.12,29.21,3.17,61.59
		c1.9,14.86,4.65,24.37,8.25,28.54c2.96,3.51,6.19,5.26,9.68,5.26h22.22V179.83z"/>
	<path class="st0" d="M828.33,179.83h-58.08c6.77,2.5,12.54,6.05,17.3,10.64c6.03,5.76,9.05,12.02,9.05,18.78
		c0,6.51-1.27,11.72-3.81,15.65c-3.17,4.92-8.15,7.39-14.92,7.39c-12.7,0-24.34-3.46-34.92-10.39
		c-12.7-8.34-19.04-19.36-19.04-33.05l0.32-9.01h-35.07v-21.78h40.15c3.7-7.76,7.78-14.98,12.22-21.66
		c5.61-8.43,11.48-15.31,17.62-20.66c7.09-6.18,13.75-9.26,20-9.26c3.28,0,6.16,2.25,8.65,6.76c2.48,4.51,3.73,9.31,3.73,14.4
		c0,7.34-2.44,13.31-7.3,17.9c-2.86,2.75-11.43,6.93-25.71,12.52h69.83V179.83z M782.14,207.25c0-6.59-6.14-12.94-18.41-19.03
		c-10.05-5.01-19.94-8.18-29.68-9.51c0,9.18,2.8,16.73,8.41,22.66c6.77,7.18,16.88,10.77,30.31,10.77c2.54,0,4.73-0.42,6.59-1.25
		C781.22,210.05,782.14,208.84,782.14,207.25z M775.8,136.89c0-7.93-2.12-11.89-6.35-11.89c-4.55,0-10,3.92-16.35,11.77
		c-3.07,3.76-7.41,10.01-13.01,18.78c9.63-2.08,17.72-4.71,24.28-7.89C771.99,143.99,775.8,140.4,775.8,136.89z"/>
	<path class="st0" d="M895.62,179.83h-78.4v-21.78h78.4V179.83z"/>
	<path class="st0" d="M962.91,179.83h-78.4v-21.78h78.4V179.83z"/>
	<path class="st0" d="M1030.2,179.83h-78.4v-21.78h78.4V179.83z"/>
	<path class="st0" d="M1097.49,179.83h-78.4v-21.78h78.4V179.83z"/>
	<path class="st0" d="M1270,179.83h-12.22c-6.77,0-12.59-0.73-17.46-2.19c-4.87-1.46-9.31-3.52-13.33-6.2
		c-4.97,3.09-9.31,5.13-13.01,6.13c-5.4,1.5-12.8,2.25-22.22,2.25h-10.32c-5.5,0-11-0.83-16.5-2.5c-3.6-1.08-8.04-2.88-13.33-5.38
		c-5.08,3-9.74,5.07-13.97,6.2c-4.23,1.13-11.11,1.69-20.63,1.69h-30.63v-21.78h30.63c8.57,0,14.71-0.58,18.41-1.75
		c6.14-1.92,9.21-5.76,9.21-11.52c0-2.42-0.16-4.84-0.48-7.26c-0.32-2.42-0.9-5.13-1.75-8.14l6.51-7.51
		c2.96,7.68,5.4,13.27,7.3,16.77c3.38,6.09,7.09,10.68,11.11,13.77c4.87,3.76,10.69,5.63,17.46,5.63h10.63
		c7.94,0,13.81-0.96,17.62-2.88c4.23-2.17,6.35-5.63,6.35-10.39c0-2.59-0.21-5.09-0.63-7.51c-0.42-2.42-1.01-5.05-1.75-7.89
		l6.67-7.51l3.33,11.77c2.86,9.26,6.35,15.69,10.47,19.28c3.6,3.17,8.46,4.76,14.6,4.76c2.86,0,5.16-0.69,6.9-2.07
		c1.75-1.38,2.62-3.15,2.62-5.32c0-4.67-2.17-9.6-6.51-14.77c-0.74-0.83-3.33-3.55-7.78-8.14l10.32-13.65
		c4.34,5.18,7.3,9.64,8.89,13.4c2.33,5.68,3.49,13.23,3.49,22.66V179.83z M1219.37,77.43l-12.06,18.15l-25.71-10.52l11.74-18.15
		L1219.37,77.43z M1224.61,43.88l-12.22,18.28L1187,51.39l11.74-18.28L1224.61,43.88z M1255.87,66.16l-12.38,18.03l-25.71-10.77
		l11.9-17.9L1255.87,66.16z"/>
</g>
<g>
	<path class="st0" d="M496.42,363.05c0,9.67-4.1,17.29-12.29,22.85s-19.6,8.35-34.2,8.35c-13.46,0-25.36-2.15-35.71-6.45v-21.09
		c8.51,3.22,15.71,5.49,21.61,6.81c5.89,1.32,11.28,1.98,16.17,1.98c5.87,0,10.36-0.95,13.5-2.86c3.13-1.9,4.7-4.74,4.7-8.5
		c0-2.1-0.69-3.97-2.07-5.6c-1.38-1.64-3.41-3.21-6.08-4.72c-2.67-1.51-8.12-3.93-16.35-7.25c-7.71-3.08-13.49-6.03-17.34-8.86
		c-3.85-2.83-6.93-6.13-9.23-9.89c-2.3-3.76-3.45-8.15-3.45-13.18c0-9.47,3.78-16.92,11.34-22.34c7.56-5.42,18.01-8.13,31.35-8.13
		c6.56,0,12.81,0.66,18.76,1.98s12.18,3.17,18.67,5.57l-8.63,17.65c-6.73-2.34-12.29-3.98-16.69-4.91
		c-4.4-0.93-8.73-1.39-12.98-1.39c-5.06,0-8.94,1-11.64,3c-2.7,2-4.05,4.61-4.05,7.84c0,2,0.55,3.75,1.64,5.24
		c1.09,1.49,2.83,2.93,5.22,4.32c2.39,1.39,8.04,3.89,16.95,7.51c11.79,4.79,19.87,9.58,24.24,14.39
		C494.24,350.17,496.42,356.07,496.42,363.05z"/>
	<path class="st0" d="M622.62,392.79h-26.65v-46.22h-49.94v46.22h-26.74V285.71h26.74v41.97h49.94v-41.97h26.65V392.79z"/>
	<path class="st0" d="M731.65,392.79l-9.14-25.49h-45.97l-9.14,25.49h-28.81l44.51-107.52h32.69l44.68,107.52H731.65z
		 M716.12,348.26c-8.45-23.1-13.21-36.16-14.28-39.18c-1.06-3.03-1.83-5.42-2.29-7.18c-1.9,6.25-7.33,21.71-16.3,46.36H716.12z"/>
	<path class="st0" d="M879.66,392.79h-26.65v-46.22h-49.94v46.22h-26.74V285.71h26.74v41.97h49.94v-41.97h26.65V392.79z"/>
	<path class="st0" d="M988.69,392.79l-9.14-25.49h-45.97l-9.14,25.49h-28.81l44.51-107.52h32.69l44.68,107.52H988.69z
		 M973.16,348.26c-8.45-23.1-13.21-36.16-14.28-39.18c-1.07-3.03-1.83-5.42-2.29-7.18c-1.9,6.25-7.33,21.71-16.3,46.36H973.16z"/>
	<path class="st0" d="M1138,338.22c0,17.63-5.91,31.13-17.73,40.5c-11.82,9.38-28.88,14.06-51.19,14.06h-35.71V285.71h39.59
		c20.59,0,36.57,4.61,47.96,13.84S1138,321.67,1138,338.22z M1110.23,338.81c0-23-11.96-34.5-35.88-34.5h-14.23v69.73h11.47
		C1097.34,374.04,1110.23,362.3,1110.23,338.81z"/>
	<path class="st0" d="M1241.34,392.79l-9.14-25.49h-45.97l-9.14,25.49h-28.81l44.51-107.52h32.69l44.68,107.52H1241.34z
		 M1225.81,348.26c-8.45-23.1-13.21-36.16-14.28-39.18c-1.07-3.03-1.83-5.42-2.29-7.18c-1.9,6.25-7.33,21.71-16.3,46.36H1225.81z"/>
</g>
<path class="st0" d="M336.12,0H60.99C39.54,1.62,27.63,15.26,27.62,38.18c-0.05,105.37-0.05,210.74-0.01,316.1
	c0.01,25.55,13.62,38.85,39.55,38.93c9.31,0.03,18.62,0,28.57,0v-34.98H62.6V34.96h271.94v323.89c-7.7,0-15.34-0.01-22.94-0.02
	h-41.91c-5.22,0.01-10.43,0.03-15.64,0.07c-13.61,0.08-21.28,6.8-20.96,17.7c0.31,10.44,7.74,16.53,20.78,16.58
	c25.86,0.1,51.72,0.1,77.58,0.01c21.19-0.07,34.51-10.59,37.54-29.35V29.26C366.24,11.72,354.77,1.4,336.12,0z"/>
<path class="st0" d="M275.83,86.94H80.41c-5.24,0-9.53-4.29-9.53-9.53V64c0-5.24,4.29-9.53,9.53-9.53h195.42
	c5.24,0,9.53,4.29,9.53,9.53v13.41C285.36,82.65,281.07,86.94,275.83,86.94z"/>
<path class="st0" d="M217.86,140.04H80.41c-5.24,0-9.53-4.29-9.53-9.53v-13.41c0-5.24,4.29-9.53,9.53-9.53h137.46
	c5.24,0,9.53,4.29,9.53,9.53v13.41C227.39,135.75,223.1,140.04,217.86,140.04z"/>
<g id="Link_1_">
	<path class="st1" d="M200.46,259.87"/>
	<g>
		<g>
			<path class="st2" d="M202.99,460.74c-6.34,7.29-15.64,11.96-25.96,12.05L153.55,473c-9.3,0.08-18.08-3.46-24.72-9.98
				c-6.64-6.52-10.34-15.23-10.42-24.54l-0.51-56.68c-0.06-6.9,5.48-12.54,12.38-12.6c6.9-0.06,12.54,5.48,12.6,12.38l0.51,56.69
				c0.02,2.63,1.07,5.1,2.95,6.94c1.88,1.85,4.36,2.85,6.99,2.83l23.48-0.21c5.36-0.04,9.74-4.44,9.77-9.79l0.7-109.5
				c0.02-2.7-1.04-5.23-2.97-7.12c-1.93-1.88-4.48-2.88-7.18-2.8l-32.71,1c-6.9,0.21-12.65-5.21-12.86-12.1
				c-0.21-6.89,5.2-12.66,12.1-12.86l32.71-1c9.54-0.29,18.56,3.22,25.39,9.89c6.83,6.67,10.57,15.6,10.51,25.15l-0.7,109.5
				C211.5,446.77,208.27,454.67,202.99,460.74z"/>
		</g>
		<g>
			<path class="st3" d="M172.58,353.15c-2.23,2.57-5.5,4.22-9.17,4.3l-32.72,0.69c-9.55,0.2-18.53-3.4-25.3-10.14
				c-6.77-6.73-10.41-15.7-10.26-25.24l1.75-109.49c0.31-18.91,15.94-34.29,34.85-34.28l23.48,0.02
				c19.2,0.01,34.82,15.65,34.81,34.85L190,270.54c-0.01,6.9-5.61,12.49-12.5,12.48c-6.9,0-12.48-5.6-12.48-12.49l0.04-56.69
				c0-5.44-4.42-9.86-9.85-9.86l-23.48-0.01c-5.35,0-9.78,4.35-9.86,9.7l-1.75,109.5c-0.04,2.7,0.99,5.24,2.9,7.14
				c1.92,1.91,4.46,2.92,7.16,2.87l32.72-0.69c6.9-0.14,12.61,5.33,12.75,12.22C175.71,347.93,174.55,350.9,172.58,353.15z"/>
		</g>
	</g>
</g>
</svg>
